<svg id="visual" viewBox="0 0 900 600" width="900" height="600" xmlns="http://www.w3.org/2000/svg" xmlns:xlink="http://www.w3.org/1999/xlink" version="1.1"><path d="M0 375L21.5 384.3C43 393.7 86 412.3 128.8 424.5C171.7 436.7 214.3 442.3 257.2 436C300 429.7 343 411.3 385.8 407C428.7 402.7 471.3 412.3 514.2 416C557 419.7 600 417.3 642.8 419.3C685.7 421.3 728.3 427.7 771.2 418.5C814 409.3 857 384.7 878.5 372.3L900 360L900 601L878.5 601C857 601 814 601 771.2 601C728.3 601 685.7 601 642.8 601C600 601 557 601 514.2 601C471.3 601 428.7 601 385.8 601C343 601 300 601 257.2 601C214.3 601 171.7 601 128.8 601C86 601 43 601 21.5 601L0 601Z" fill="#28baf8"></path><path d="M0 461L21.5 463.2C43 465.3 86 469.7 128.8 463.7C171.7 457.7 214.3 441.3 257.2 440.8C300 440.3 343 455.7 385.8 466.5C428.7 477.3 471.3 483.7 514.2 486.2C557 488.7 600 487.3 642.8 483.7C685.7 480 728.3 474 771.2 471.7C814 469.3 857 470.7 878.5 471.3L900 472L900 601L878.5 601C857 601 814 601 771.2 601C728.3 601 685.7 601 642.8 601C600 601 557 601 514.2 601C471.3 601 428.7 601 385.8 601C343 601 300 601 257.2 601C214.3 601 171.7 601 128.8 601C86 601 43 601 21.5 601L0 601Z" fill="#009aff"></path><path d="M0 469L21.5 470C43 471 86 473 128.8 476C171.7 479 214.3 483 257.2 482C300 481 343 475 385.8 479.5C428.7 484 471.3 499 514.2 507.2C557 515.3 600 516.7 642.8 508.3C685.7 500 728.3 482 771.2 482.3C814 482.7 857 501.3 878.5 510.7L900 520L900 601L878.5 601C857 601 814 601 771.2 601C728.3 601 685.7 601 642.8 601C600 601 557 601 514.2 601C471.3 601 428.7 601 385.8 601C343 601 300 601 257.2 601C214.3 601 171.7 601 128.8 601C86 601 43 601 21.5 601L0 601Z" fill="#2971fd"></path><path d="M0 555L21.5 557C43 559 86 563 128.8 560C171.7 557 214.3 547 257.2 545.2C300 543.3 343 549.7 385.8 550.3C428.7 551 471.3 546 514.2 543.7C557 541.3 600 541.7 642.8 544.3C685.7 547 728.3 552 771.2 547.8C814 543.7 857 530.3 878.5 523.7L900 517L900 601L878.5 601C857 601 814 601 771.2 601C728.3 601 685.7 601 642.8 601C600 601 557 601 514.2 601C471.3 601 428.7 601 385.8 601C343 601 300 601 257.2 601C214.3 601 171.7 601 128.8 601C86 601 43 601 21.5 601L0 601Z" fill="#7130e8"></path></svg>