<!--?xml version="1.0" standalone="no"?-->
              <svg id="sw-js-blob-svg" viewBox="0 0 100 100" xmlns="http://www.w3.org/2000/svg" version="1.1">
                    <defs> 
                        <linearGradient id="sw-gradient" x1="0" x2="1" y1="1" y2="0">
                            <stop id="stop1" stop-color="rgba(249, 250, 251, 1)" offset="0%"></stop>
                            <stop id="stop2" stop-color="rgba(249, 250, 251, 1)" offset="100%"></stop>
                        </linearGradient>
                    </defs>
                <path fill="url(#sw-gradient)" d="M24.3,-27.9C32.1,-22.4,39.3,-15.3,40.7,-7.2C42,0.8,37.4,9.9,32.4,18.7C27.3,27.6,21.8,36.2,13.9,39.9C5.9,43.5,-4.5,42.2,-13.4,38.3C-22.3,34.4,-29.8,28,-34.2,19.9C-38.6,11.9,-39.8,2.3,-37.9,-6.4C-36,-15.1,-30.9,-22.9,-24,-28.6C-17.2,-34.3,-8.6,-37.8,-0.2,-37.7C8.3,-37.5,16.5,-33.5,24.3,-27.9Z" width="100%" height="100%" transform="translate(50 50)" stroke-width="0" style="transition: 0.3s;" stroke="url(#sw-gradient)"></path>
              </svg>